# xmcd
# 
# Track frame offsets:
#     150
#     14396
#     33524
#     47739
#     65181
#     87642
#     107238
#     123044
#     141571
#     158990
#     182293
#     204539
#     227629
#     244014
#     264583
#     283532
#     298467
#     313693
#     338483
# 
# Disc length: 4754
# 
# Revision: 2
# Processed by: cddbd v1.5.2PL0 Copyright (c) Steve Scherf et al.
# Submitted via: fre:ac v1.0.31
# 
DISCID=20129013
DTITLE=Emmylou Harris Tribute - Life and Songs Of Emmylou Harris Disc 1
DYEAR=2016
DGENRE=Country
TTITLE0=One Of These Days
TTITLE1=Will The Circle Be Unbroken
TTITLE2=Wheels
TTITLE3=Orphan Girl
TTITLE4=Sin City
TTITLE5=Hickory Wind
TTITLE6=You're Still On My Mind
TTITLE7=Born To Run
TTITLE8=When We're Gone, Long Gone
TTITLE9=Blackhawk
TTITLE10=All The Roadrunning
TTITLE11=The Pearl
TTITLE12=When I Stop Dreaming
TTITLE13=Prayer In Open D
TTITLE14=Together Again
TTITLE15=Two More Bottles Of Wine
TTITLE16=Loving Her Was Easier (Than  Anything I'll Ever Do Again)
TTITLE17=Til I Gain Control Again
TTITLE18=Boulder To Birmingham
EXTD=
EXTT0=
EXTT1=
EXTT2=
EXTT3=
EXTT4=
EXTT5=
EXTT6=
EXTT7=
EXTT8=
EXTT9=
EXTT10=
EXTT11=
EXTT12=
EXTT13=
EXTT14=
EXTT15=
EXTT16=
EXTT17=
EXTT18=
PLAYORDER=
